{"glyphs":{":":{"x_min":0,"x_max":204,"ha":204,"o":"m 102 344 b 115 356 121 374 127 391 b 132 407 137 423 141 439 b 145 459 127 471 109 470 b 87 468 69 454 61 434 b 52 409 40 358 65 337 b 76 327 93 335 102 344 z m 124 193 b 106 192 86 179 81 161 b 72 126 62 82 84 51 b 95 36 131 47 128 68 b 126 81 135 103 139 116 b 143 132 148 149 153 165 b 158 183 139 193 124 193 z"},"$":{"x_min":0,"x_max":564,"ha":564,"o":"m 476 88 b 438 150 391 207 341 259 b 342 272 342 284 343 297 b 345 387 348 476 350 565 b 350 600 352 636 353 672 b 413 643 435 570 446 508 b 450 482 497 498 493 520 b 484 577 469 637 429 680 b 409 702 382 717 354 726 b 354 754 353 781 350 808 b 350 809 350 810 350 810 b 349 814 349 817 348 820 b 345 843 303 829 305 809 b 309 784 310 760 311 735 b 298 736 286 736 274 735 b 143 722 29 597 53 462 b 78 324 203 243 292 146 b 291 103 290 60 290 16 b 288 -40 286 -97 287 -153 b 249 -140 215 -114 195 -80 b 158 -16 165 63 205 123 b 211 132 204 141 196 143 b 185 146 174 138 168 129 b 103 36 116 -102 215 -166 b 238 -181 263 -190 289 -195 b 290 -212 292 -230 294 -247 b 299 -278 353 -259 351 -232 b 350 -220 349 -209 348 -197 b 410 -190 468 -155 498 -95 b 529 -32 510 32 476 88 z m 305 553 b 304 470 300 386 297 302 b 216 380 116 478 162 592 b 186 651 247 691 310 685 b 309 641 306 596 305 553 z m 435 -108 b 427 -141 387 -156 357 -160 b 353 -161 349 -161 346 -161 b 340 -76 339 10 339 95 b 370 59 400 20 419 -24 b 430 -48 441 -81 435 -108 z"},"?":{"x_min":0,"x_max":546,"ha":546,"o":"m 481 690 b 462 731 426 757 384 769 b 296 795 203 784 135 719 b 76 662 8 537 83 468 b 99 454 138 479 120 496 b 77 536 100 600 125 644 b 148 685 182 722 228 736 b 277 752 343 741 378 700 b 411 661 404 605 394 559 b 369 454 328 354 293 252 b 258 152 221 42 223 -65 b 225 -127 335 -92 342 -46 b 350 4 355 54 366 104 b 377 155 392 205 408 254 b 438 352 473 449 490 550 b 498 598 502 646 481 690 z m 342 -166 b 343 -144 313 -138 297 -141 b 277 -145 251 -160 247 -182 b 241 -219 244 -260 278 -282 b 300 -295 332 -272 338 -252 b 347 -226 341 -194 342 -166 z"},"<":{"x_min":0,"x_max":402,"ha":402,"o":"m 322 261 b 291 267 259 271 228 276 b 220 278 209 279 198 280 b 210 287 222 293 234 300 b 250 310 266 320 282 330 b 300 342 314 360 332 371 b 355 385 344 410 319 399 b 294 389 266 385 241 375 b 220 367 199 358 178 349 b 137 332 68 315 53 268 b 36 217 102 203 138 196 b 182 186 228 176 274 173 b 302 172 333 183 347 209 b 360 233 347 256 322 261 z"},"'":{"x_min":0,"x_max":196,"ha":196,"o":"m 118 766 b 100 767 76 757 68 739 b 57 711 42 673 55 642 b 65 618 107 635 115 653 b 127 679 136 708 145 736 b 151 754 133 766 118 766 z"},"=":{"x_min":0,"x_max":459,"ha":459,"o":"m 191 243 b 243 245 298 244 349 255 b 372 260 413 306 374 320 b 327 337 269 327 220 321 b 173 315 111 316 68 292 b 58 286 48 274 57 263 b 83 231 155 241 191 243 z m 365 238 b 303 232 241 225 179 217 b 152 214 37 207 51 159 b 61 122 156 136 182 138 b 236 140 290 144 344 150 b 370 153 402 169 408 197 b 413 223 390 240 365 238 z"},"a":{"x_min":0,"x_max":427,"ha":427,"o":"m 419 219 b 407 164 389 111 362 61 b 356 49 350 37 341 27 b 333 18 331 15 325 23 b 319 30 319 49 318 57 b 316 70 315 83 313 96 b 301 207 322 317 317 428 b 316 455 283 463 262 459 b 241 455 218 443 206 424 b 205 423 204 421 204 419 b 202 417 202 415 201 412 b 191 439 169 457 133 454 b 82 451 42 410 18 368 b -27 290 -46 164 -3 81 b 17 43 60 21 103 27 b 142 32 167 66 181 100 b 183 105 185 111 187 117 b 194 68 210 20 248 -10 b 296 -46 361 -15 390 30 b 426 87 448 156 461 222 b 465 246 423 239 419 219 z m 186 323 b 178 282 170 241 163 199 b 157 168 151 136 139 107 b 135 98 125 71 115 68 b 94 63 90 93 88 106 b 75 169 75 230 90 293 b 97 320 106 352 122 376 b 123 377 126 379 128 382 b 131 378 135 373 136 372 b 140 364 144 357 148 349 b 155 332 174 335 188 345 b 187 338 186 331 186 323 z"},"L":{"x_min":0,"x_max":541,"ha":541,"o":"m 357 -163 b 362 -150 366 -136 369 -123 b 426 -126 483 -137 539 -148 b 605 -161 679 -185 743 -154 b 769 -141 754 -111 728 -124 b 694 -141 653 -131 617 -124 b 575 -116 532 -106 489 -99 b 452 -93 415 -88 378 -86 b 389 -31 395 25 399 80 b 407 166 409 252 408 338 b 407 531 399 725 388 918 b 386 947 350 952 327 946 b 298 939 276 917 274 887 b 262 740 274 592 280 444 b 287 299 293 153 286 7 b 284 -25 282 -57 279 -89 b 274 -90 269 -90 263 -91 b 198 -102 125 -127 82 -180 b 47 -222 35 -290 75 -334 b 118 -379 188 -365 236 -337 b 299 -300 335 -231 357 -163 z m 163 -325 b 88 -326 83 -234 123 -189 b 160 -149 220 -132 275 -125 b 272 -148 268 -171 263 -193 b 251 -242 225 -325 163 -325 z"},"3":{"x_min":0,"x_max":576,"ha":576,"o":"m 105 507 b 71 554 145 629 181 653 b 228 684 326 700 340 624 b 349 571 322 511 298 466 b 271 417 233 376 186 346 b 169 335 155 309 164 290 b 174 269 203 267 222 272 b 293 292 359 279 393 208 b 427 139 419 50 376 -13 b 341 -64 267 -108 206 -76 b 126 -35 112 47 118 130 b 119 155 71 142 69 122 b 59 42 64 -46 117 -111 b 172 -179 278 -167 348 -134 b 501 -62 584 146 480 292 b 444 342 394 366 339 372 b 366 407 387 447 402 490 b 427 565 425 645 356 694 b 292 739 206 715 147 672 b 102 640 18 546 62 487 b 76 469 117 490 105 507 z"},";":{"x_min":0,"x_max":225,"ha":225,"o":"m 133 354 b 146 356 162 365 164 379 b 167 392 168 404 166 417 b 164 429 160 441 157 453 b 152 477 110 462 111 441 b 113 417 107 393 105 370 b 105 356 124 352 133 354 z m 135 113 b 111 112 83 95 77 70 b 67 27 52 -17 50 -62 b 49 -77 69 -83 80 -82 b 97 -82 112 -71 121 -58 b 147 -18 162 31 174 76 b 181 100 156 114 135 113 z"},"J":{"x_min":0,"x_max":835,"ha":835,"o":"m 615 -220 b 691 -126 727 -1 744 117 b 761 244 761 374 752 501 b 749 556 742 612 731 667 b 764 696 798 722 836 744 b 860 759 846 789 821 774 b 786 754 754 730 723 704 b 710 756 693 807 669 855 b 645 902 613 962 562 985 b 504 1011 441 978 392 948 b 278 878 181 783 63 719 b 38 706 52 677 77 690 b 168 738 247 804 329 865 b 370 895 413 927 461 947 b 523 973 565 940 585 883 b 615 799 626 707 631 618 b 606 592 581 565 557 539 b 476 451 396 361 329 263 b 263 166 197 54 186 -64 b 177 -159 211 -281 306 -323 b 415 -372 545 -306 615 -220 z m 406 -256 b 308 -266 240 -176 236 -86 b 230 21 290 131 345 219 b 408 320 487 410 567 498 b 589 522 612 546 634 571 b 634 568 634 566 635 564 b 640 453 640 342 633 231 b 626 125 608 15 570 -84 b 542 -158 493 -247 406 -256 z"},"V":{"x_min":0,"x_max":889,"ha":889,"o":"m 922 936 b 877 886 860 815 838 753 b 812 680 788 607 764 533 b 718 390 683 243 632 102 b 610 41 584 -37 535 -84 b 524 -94 508 -106 491 -104 b 477 -102 465 -90 455 -81 b 429 -58 412 -30 395 0 b 360 62 336 132 314 200 b 292 270 273 341 257 413 b 221 576 202 741 172 905 b 161 971 45 930 50 872 b 64 710 90 548 128 390 b 165 240 209 80 301 -45 b 343 -101 402 -151 475 -144 b 537 -139 579 -100 609 -48 b 690 88 721 249 766 398 b 792 487 820 574 850 662 b 865 707 880 752 896 798 b 912 840 924 887 953 922 b 972 944 936 952 922 936 z"},"\"":{"x_min":0,"x_max":288,"ha":288,"o":"m 102 775 b 88 774 69 765 63 752 b 53 727 46 703 52 676 b 57 655 74 636 97 648 b 115 658 121 676 125 695 b 129 715 131 735 130 756 b 130 770 113 776 102 775 z m 204 773 b 182 772 159 757 153 736 b 147 715 147 693 153 672 b 159 653 184 639 201 654 b 226 675 232 710 238 741 b 241 762 224 775 204 773 z"},"7":{"x_min":0,"x_max":486,"ha":486,"o":"m 66 680 b 108 678 148 687 189 697 b 229 708 279 726 321 716 b 374 703 359 635 353 597 b 345 551 333 506 321 462 b 305 403 286 345 268 288 b 249 284 230 279 212 274 b 187 268 185 233 215 240 b 228 244 242 247 256 250 b 221 143 186 36 161 -74 b 155 -103 182 -120 209 -119 b 239 -117 271 -96 279 -66 b 307 34 334 134 362 234 b 365 245 368 257 371 268 b 384 270 397 271 409 272 b 434 274 450 312 419 310 b 406 309 393 307 381 306 b 399 380 414 455 423 531 b 431 597 433 727 350 750 b 310 762 264 751 224 741 b 175 729 126 713 75 715 b 52 716 37 681 66 680 z"},"S":{"x_min":0,"x_max":696,"ha":696,"o":"m 430 59 b 445 45 481 69 465 85 b 400 148 300 151 223 109 b 144 66 86 -16 75 -105 b 63 -193 99 -276 175 -322 b 251 -368 344 -367 424 -332 b 509 -294 589 -219 624 -133 b 662 -39 650 61 599 147 b 546 237 462 298 380 360 b 302 419 219 486 181 578 b 144 667 154 785 220 858 b 256 898 310 918 359 886 b 413 851 426 784 425 723 b 425 697 474 713 475 736 b 478 822 446 922 354 947 b 266 970 177 912 126 845 b 72 775 42 683 52 594 b 63 498 116 419 184 354 b 256 285 346 236 421 171 b 487 114 550 41 558 -49 b 565 -139 518 -235 441 -283 b 363 -332 259 -334 186 -274 b 104 -206 102 -88 155 -2 b 213 91 341 142 430 59 z"},"}":{"x_min":0,"x_max":550,"ha":550,"o":"m 489 387 b 405 478 348 585 296 697 b 271 750 242 802 211 851 b 186 889 145 942 95 913 b 71 900 84 871 109 885 b 129 895 159 842 166 830 b 181 805 189 780 195 753 b 208 702 214 648 231 598 b 258 517 300 442 352 374 b 325 359 302 338 285 312 b 249 254 245 178 235 113 b 225 45 215 -25 195 -91 b 182 -138 153 -217 92 -214 b 78 -213 63 -217 55 -230 b 49 -239 47 -255 60 -259 b 122 -280 185 -256 230 -211 b 278 -164 300 -93 316 -30 b 334 40 342 111 354 182 b 360 219 364 313 419 308 b 455 304 527 345 489 387 z"},"Z":{"x_min":0,"x_max":987,"ha":987,"o":"m 907 -72 b 792 -123 662 -97 545 -65 b 530 -61 514 -56 498 -51 b 606 52 685 185 731 328 b 742 330 753 331 764 333 b 774 335 788 341 790 352 b 791 363 783 371 772 369 b 762 367 752 366 741 364 b 747 385 752 405 756 427 b 779 537 786 657 766 768 b 748 866 694 960 597 998 b 483 1043 360 1001 263 936 b 213 903 168 863 133 814 b 109 779 70 719 105 679 b 119 664 158 689 142 707 b 115 738 173 808 193 830 b 224 866 262 896 303 921 b 383 971 484 1000 574 960 b 663 921 682 825 684 737 b 687 641 675 544 655 450 b 646 412 636 374 623 338 b 607 334 591 330 575 329 b 552 328 537 293 566 295 b 581 295 596 298 610 301 b 563 181 493 71 396 -16 b 395 -18 393 -19 391 -21 b 323 -4 254 6 189 -11 b 142 -22 96 -49 69 -89 b 44 -128 39 -178 81 -207 b 127 -239 194 -227 243 -211 b 298 -193 349 -165 397 -132 b 419 -117 441 -101 461 -84 b 512 -98 562 -114 612 -124 b 716 -146 824 -147 922 -103 b 951 -91 935 -59 907 -72 z m 298 -90 b 260 -113 219 -137 174 -143 b 160 -145 142 -143 130 -136 b 107 -124 121 -97 135 -83 b 169 -47 223 -41 271 -44 b 297 -46 323 -50 349 -55 b 333 -67 316 -79 298 -90 z"},"x":{"x_min":0,"x_max":344,"ha":344,"o":"m 336 219 b 320 167 305 111 275 66 b 268 55 257 40 242 40 b 226 41 219 57 211 68 b 198 89 190 111 182 133 b 166 179 154 226 142 273 b 173 323 207 371 243 418 b 262 443 223 453 208 434 b 180 398 154 361 130 324 b 119 371 109 419 92 464 b 74 515 -19 468 -16 424 b -11 349 14 273 36 203 b 39 195 41 187 44 179 b 18 130 -7 79 -28 28 b -39 1 3 2 11 21 b 27 58 43 94 61 130 b 79 86 103 45 142 21 b 168 6 203 2 233 3 b 259 4 282 18 299 37 b 343 86 360 160 378 221 b 385 245 342 237 336 219 z"},")":{"x_min":0,"x_max":470,"ha":470,"o":"m 395 518 b 375 616 345 714 284 794 b 236 857 111 938 53 841 b 39 818 80 819 91 835 b 108 861 144 847 159 828 b 174 810 187 788 198 768 b 222 724 241 678 256 630 b 286 532 301 426 305 324 b 310 216 301 111 275 7 b 254 -74 216 -204 114 -207 b 90 -208 58 -251 95 -256 b 199 -270 290 -200 336 -112 b 386 -16 409 91 417 198 b 425 305 416 413 395 518 z"},"&":{"x_min":0,"x_max":688,"ha":688,"o":"m 584 186 b 535 222 465 221 409 204 b 402 202 394 200 386 197 b 392 347 406 497 411 647 b 457 621 473 562 465 505 b 461 477 507 486 510 508 b 517 552 517 600 492 639 b 474 667 445 687 413 697 b 414 731 414 766 413 801 b 413 824 370 810 370 789 b 370 761 370 732 370 704 b 287 708 198 661 148 598 b 95 532 60 431 100 350 b 123 303 164 280 210 272 b 146 214 93 142 65 65 b 45 7 43 -62 72 -118 b 100 -171 151 -207 207 -223 b 254 -237 304 -237 351 -227 b 353 -242 355 -257 358 -272 b 361 -297 407 -282 403 -260 b 401 -245 399 -230 397 -214 b 455 -194 508 -158 549 -113 b 616 -39 691 109 584 186 z m 288 89 b 292 65 336 80 333 101 b 331 112 334 121 339 128 b 335 31 336 -66 344 -163 b 309 -166 274 -161 241 -147 b 157 -108 129 -18 159 67 b 176 113 207 153 240 189 b 271 224 306 256 346 280 b 344 245 342 210 341 175 b 308 155 282 127 288 89 z m 352 361 b 346 361 341 360 337 359 b 284 344 220 342 193 400 b 168 452 182 514 210 562 b 241 614 295 662 358 661 b 362 660 365 660 369 660 b 365 560 358 461 352 361 z m 492 -106 b 462 -128 427 -145 390 -155 b 381 -50 381 55 384 161 b 407 170 432 175 448 176 b 492 181 542 173 569 135 b 628 53 559 -55 492 -106 z"},"_":{"x_min":0,"x_max":570,"ha":570,"o":"m 497 -125 b 426 -113 355 -122 285 -128 b 250 -132 215 -136 180 -138 b 144 -140 107 -141 72 -151 b 63 -154 40 -172 55 -182 b 107 -217 191 -206 251 -203 b 324 -198 397 -196 470 -193 b 489 -192 511 -179 518 -160 b 524 -143 515 -128 497 -125 z"},"v":{"x_min":0,"x_max":450,"ha":450,"o":"m 467 235 b 419 225 365 233 321 257 b 327 286 333 316 338 346 b 346 401 361 474 335 527 b 310 578 253 545 228 513 b 195 472 178 418 187 366 b 195 308 229 265 273 236 b 267 212 260 189 253 166 b 241 124 227 80 204 42 b 195 27 184 7 168 23 b 154 37 144 60 137 79 b 99 177 104 283 90 386 b 81 451 -26 408 -27 355 b -28 288 -18 219 -2 154 b 13 96 38 32 88 -5 b 128 -35 186 -34 222 2 b 260 39 277 99 293 148 b 299 171 306 193 311 216 b 361 196 418 191 470 202 b 494 207 496 241 467 235 z m 284 282 b 266 298 251 318 242 341 b 225 381 226 427 244 466 b 250 480 265 513 282 513 b 301 513 302 464 302 450 b 304 395 296 338 284 282 z"},"O":{"x_min":0,"x_max":794,"ha":794,"o":"m 744 380 b 740 511 724 645 683 771 b 648 880 586 997 487 1061 b 390 1124 269 1098 188 1022 b 99 940 62 813 53 696 b 42 566 63 415 149 312 b 157 302 165 294 174 286 b 173 265 173 245 172 225 b 172 158 176 91 189 26 b 212 -82 263 -217 388 -237 b 531 -261 635 -141 681 -22 b 730 105 747 245 744 380 z m 610 94 b 597 43 582 -9 557 -55 b 538 -93 510 -133 466 -144 b 422 -155 383 -124 358 -91 b 325 -47 308 8 298 61 b 287 117 283 175 283 232 b 351 219 424 233 489 268 b 512 281 499 309 475 296 b 413 263 345 253 284 272 b 286 333 293 393 290 454 b 287 507 198 474 190 437 b 184 409 180 380 178 351 b 121 427 100 530 96 623 b 92 733 112 855 173 949 b 232 1039 345 1093 445 1034 b 535 982 577 867 600 772 b 627 663 637 549 640 437 b 644 322 637 206 610 94 z"},"(":{"x_min":0,"x_max":471,"ha":471,"o":"m 419 848 b 370 930 263 863 217 815 b 149 742 112 645 88 549 b 36 344 31 116 111 -82 b 131 -130 158 -180 199 -212 b 242 -246 302 -263 357 -256 b 386 -252 412 -209 368 -207 b 268 -203 221 -64 200 16 b 172 121 161 229 165 338 b 168 441 185 548 214 647 b 229 694 247 738 271 780 b 282 799 294 821 310 836 b 330 855 363 852 379 829 b 391 811 430 830 419 848 z"},"C":{"x_min":0,"x_max":781,"ha":781,"o":"m 691 268 b 654 109 614 -71 504 -198 b 481 -225 453 -251 421 -268 b 380 -290 342 -287 303 -262 b 238 -220 213 -137 194 -67 b 150 93 156 266 189 427 b 221 579 272 740 376 858 b 400 885 436 924 473 929 b 515 934 549 895 562 859 b 596 769 571 659 526 578 b 511 551 557 551 568 571 b 613 652 636 748 622 841 b 609 925 551 998 459 987 b 362 977 282 897 229 821 b 172 739 133 646 105 550 b 48 358 29 147 80 -49 b 102 -136 135 -237 212 -290 b 287 -343 379 -338 455 -290 b 540 -235 596 -145 635 -54 b 680 50 707 160 731 270 b 736 294 695 286 691 268 z"},"W":{"x_min":0,"x_max":1373,"ha":1373,"o":"m 1440 948 b 1399 902 1378 842 1357 785 b 1335 724 1316 661 1300 598 b 1266 467 1240 335 1206 205 b 1189 140 1170 75 1146 12 b 1128 -34 1100 -98 1050 -117 b 994 -138 941 -82 914 -40 b 880 12 856 73 838 132 b 795 271 789 418 777 562 b 773 624 669 594 654 543 b 653 542 653 541 653 541 b 615 436 591 327 558 221 b 541 166 522 111 498 60 b 476 14 447 -33 402 -59 b 299 -117 241 30 223 106 b 198 217 188 331 181 444 b 173 577 173 711 170 845 b 169 875 129 881 106 875 b 78 867 51 844 51 813 b 49 679 50 546 61 412 b 71 287 83 152 134 36 b 177 -62 261 -137 373 -108 b 483 -79 535 36 571 133 b 607 229 630 329 657 428 b 665 318 679 208 713 104 b 751 -16 825 -169 966 -185 b 1028 -192 1090 -167 1129 -119 b 1168 -71 1187 -8 1206 49 b 1252 187 1282 329 1314 470 b 1332 550 1351 631 1376 710 b 1389 751 1403 791 1418 831 b 1433 867 1447 903 1472 933 b 1492 955 1455 964 1440 948 z"},"A":{"x_min":0,"x_max":1242,"ha":1242,"o":"m 1138 361 b 1139 361 1140 362 1141 362 b 1169 368 1184 417 1145 412 b 1140 411 1135 410 1131 410 b 1121 478 1109 546 1095 613 b 1078 701 1061 791 1017 870 b 982 931 930 998 851 990 b 772 982 710 914 667 852 b 616 778 579 694 546 611 b 510 521 482 428 458 333 b 448 293 439 252 430 211 b 306 163 183 110 64 50 b 38 37 52 8 78 20 b 190 76 305 126 423 170 b 393 8 378 -157 382 -322 b 382 -345 423 -331 423 -311 b 424 -146 438 22 468 187 b 511 203 555 218 599 232 b 686 261 775 284 865 305 b 920 317 976 328 1031 339 b 1032 327 1033 316 1034 304 b 1044 200 1051 96 1057 -9 b 1062 -113 1063 -218 1070 -321 b 1072 -353 1111 -358 1135 -352 b 1164 -344 1191 -321 1192 -289 b 1195 -90 1170 113 1144 311 b 1142 327 1140 344 1138 361 z m 590 268 b 552 255 514 241 476 227 b 511 407 568 583 650 745 b 685 814 729 893 797 935 b 833 957 875 958 909 930 b 939 905 954 864 966 828 b 992 749 998 665 1007 584 b 1014 520 1020 456 1026 392 b 878 363 732 315 590 268 z"},"f":{"x_min":0,"x_max":271,"ha":271,"o":"m 268 231 b 220 176 160 134 105 87 b 101 125 98 162 97 200 b 183 305 264 427 289 560 b 298 611 309 704 250 730 b 186 758 115 698 81 649 b -5 524 -23 353 -20 205 b -18 130 -11 57 11 -15 b 30 -76 75 -141 141 -153 b 208 -165 253 -103 242 -41 b 232 17 186 57 132 65 b 188 115 251 158 301 216 b 320 238 283 247 268 231 z m 98 277 b 103 387 122 496 160 599 b 168 621 179 640 190 661 b 202 681 212 703 234 676 b 248 659 247 629 247 609 b 247 578 241 547 233 517 b 207 425 157 340 98 265 b 98 269 98 273 98 277 z m 197 -57 b 199 -74 196 -127 165 -114 b 145 -106 136 -67 131 -49 b 124 -23 119 3 114 29 b 157 22 191 -11 197 -57 z"},"Q":{"x_min":0,"x_max":794,"ha":794,"o":"m 233 -297 b 250 -266 301 -265 332 -264 b 377 -262 418 -277 460 -290 b 531 -311 607 -322 675 -284 b 699 -271 686 -242 660 -255 b 585 -292 514 -260 441 -240 b 556 -230 641 -126 681 -22 b 730 105 747 245 744 380 b 740 511 724 645 683 771 b 648 880 586 997 487 1061 b 390 1124 269 1098 188 1022 b 99 940 62 813 53 696 b 42 566 63 415 149 312 b 157 302 165 294 174 286 b 173 265 173 245 172 225 b 172 158 176 91 189 26 b 210 -70 252 -186 348 -226 b 290 -226 222 -240 193 -290 b 180 -315 222 -315 233 -297 z m 283 232 b 351 219 424 233 489 268 b 512 281 499 309 475 296 b 413 263 345 253 284 272 b 286 333 293 393 290 454 b 287 507 198 474 191 437 b 184 409 180 380 178 351 b 121 427 100 530 96 623 b 92 733 112 855 173 949 b 232 1039 345 1093 445 1034 b 535 982 577 867 600 772 b 627 663 637 549 640 437 b 644 322 637 206 610 94 b 597 43 582 -9 558 -55 b 538 -93 510 -133 466 -144 b 422 -155 383 -124 358 -91 b 325 -47 309 8 298 61 b 287 117 283 175 283 232 z"},"w":{"x_min":0,"x_max":682,"ha":682,"o":"m 703 233 b 659 227 613 235 575 255 b 582 290 587 325 589 360 b 591 392 592 423 589 455 b 586 475 583 503 567 518 b 535 552 485 521 464 490 b 439 451 432 401 442 356 b 454 303 486 262 527 235 b 521 209 514 183 506 157 b 498 131 487 105 474 81 b 463 61 449 26 425 49 b 393 81 378 137 369 180 b 359 229 355 280 352 330 b 348 393 227 355 232 298 b 232 295 233 292 233 289 b 224 235 213 182 197 129 b 189 102 180 72 164 48 b 157 36 146 22 132 20 b 119 19 113 30 108 42 b 97 68 96 99 95 127 b 93 159 91 192 91 224 b 91 257 93 289 95 322 b 97 354 104 391 96 423 b 84 467 13 454 -2 417 b -19 375 -20 330 -21 286 b -23 243 -22 200 -18 157 b -10 89 8 -7 91 -18 b 157 -27 199 18 222 75 b 234 106 243 137 251 169 b 254 155 257 142 261 129 b 277 79 306 22 354 -5 b 467 -68 535 99 557 179 b 561 190 564 202 566 214 b 606 198 651 192 695 198 b 717 201 733 237 703 233 z m 546 402 b 547 373 545 344 541 316 b 540 305 538 294 536 283 b 510 306 492 337 485 375 b 481 398 481 422 487 444 b 492 463 511 516 535 482 b 549 464 546 424 546 402 z"},"-":{"x_min":0,"x_max":493,"ha":493,"o":"m 425 263 b 309 266 192 267 76 269 b 52 269 36 233 67 232 b 183 229 300 226 416 225 b 440 225 457 262 425 263 z"},"E":{"x_min":0,"x_max":944,"ha":944,"o":"m 301 -253 b 359 -249 416 -240 473 -228 b 539 -214 604 -196 668 -177 b 733 -157 800 -129 869 -129 b 892 -129 908 -94 878 -94 b 830 -94 784 -107 738 -120 b 688 -135 637 -151 586 -164 b 486 -192 383 -214 278 -215 b 234 -215 175 -215 140 -183 b 99 -147 132 -105 160 -72 b 220 -6 303 45 383 83 b 385 83 387 84 389 85 b 394 85 399 85 404 85 b 509 90 616 118 707 169 b 723 178 744 196 741 217 b 739 236 718 248 700 245 b 616 232 530 209 449 178 b 389 173 330 180 276 206 b 152 267 147 422 182 538 b 219 659 295 768 402 835 b 462 873 536 905 608 904 b 685 902 746 856 769 782 b 794 701 785 605 780 521 b 775 423 763 325 751 227 b 748 200 794 209 797 230 b 808 327 819 425 825 522 b 830 610 837 704 815 790 b 795 865 744 919 668 936 b 589 955 504 931 432 899 b 294 838 170 723 107 586 b 46 452 22 258 150 154 b 188 123 233 105 280 95 b 224 60 171 20 125 -27 b 92 -60 51 -106 50 -156 b 49 -205 91 -236 134 -246 b 187 -259 248 -255 301 -253 z"},"s":{"x_min":0,"x_max":306,"ha":306,"o":"m 317 233 b 267 210 217 186 169 157 b 155 176 141 194 128 213 b 96 259 75 309 72 366 b 71 388 71 417 85 436 b 108 469 143 428 157 407 b 170 388 211 408 199 427 b 180 460 152 491 111 490 b 70 489 33 461 8 430 b -56 349 -29 245 25 168 b 43 142 64 119 85 96 b 77 88 68 80 60 71 b 10 17 -53 -112 39 -161 b 117 -203 212 -139 231 -60 b 242 -13 243 39 220 83 b 211 100 200 117 188 133 b 235 161 285 183 331 205 b 356 216 343 244 317 233 z m 183 -72 b 169 -118 115 -155 68 -128 b 18 -100 37 -27 60 12 b 73 35 89 54 108 72 b 113 67 118 62 123 57 b 157 23 198 -20 183 -72 z"},">":{"x_min":0,"x_max":411,"ha":411,"o":"m 356 297 b 346 316 321 322 303 328 b 280 337 257 346 233 354 b 184 371 133 390 81 389 b 64 389 40 369 54 352 b 80 321 121 307 157 291 b 171 284 186 278 201 272 b 177 267 153 261 130 256 b 107 252 79 228 82 203 b 84 177 115 171 136 177 b 183 190 232 198 279 211 b 310 221 380 251 356 297 z"},"l":{"x_min":0,"x_max":303,"ha":303,"o":"m 296 231 b 286 179 265 129 234 86 b 225 74 201 39 184 42 b 169 44 153 77 147 89 b 124 136 117 191 111 242 b 105 297 102 352 101 406 b 179 498 239 606 268 722 b 281 772 289 847 242 883 b 193 920 123 870 89 834 b -14 725 -26 561 -24 419 b -23 347 -20 276 -7 205 b 4 142 23 63 75 20 b 128 -23 202 -2 246 43 b 295 94 324 166 337 234 b 342 258 300 250 296 231 z m 133 736 b 139 759 170 859 202 846 b 225 838 230 800 230 780 b 231 753 224 726 216 701 b 192 616 152 538 101 468 b 101 558 109 649 133 736 z"},"8":{"x_min":0,"x_max":506,"ha":506,"o":"m 65 -18 b 87 -75 136 -128 198 -142 b 265 -157 337 -125 385 -79 b 436 -31 466 39 453 110 b 440 184 394 242 342 294 b 341 295 339 297 338 298 b 352 375 365 452 366 530 b 366 588 365 660 317 702 b 273 741 206 733 157 707 b 94 673 62 606 58 536 b 54 453 89 390 137 334 b 108 295 89 249 74 202 b 51 131 38 54 65 -18 z m 189 659 b 207 685 244 690 270 674 b 304 655 313 611 317 576 b 325 495 313 414 299 335 b 258 372 218 410 194 462 b 167 518 151 603 189 659 z m 100 124 b 108 183 126 254 161 308 b 203 265 251 225 292 182 b 338 133 378 64 357 -5 b 338 -71 267 -125 199 -95 b 116 -58 88 41 100 124 z"},"\\":{"x_min":0,"x_max":521,"ha":521,"o":"m 469 -131 b 443 -52 407 23 381 102 b 355 179 332 257 307 335 b 281 417 253 499 222 579 b 205 620 190 662 171 702 b 154 737 137 788 105 812 b 88 824 56 813 52 792 b 44 751 62 705 73 666 b 85 623 99 581 113 538 b 140 454 167 369 192 284 b 215 204 237 124 263 44 b 288 -33 313 -117 361 -184 b 394 -230 487 -187 469 -131 z"},"e":{"x_min":0,"x_max":291,"ha":291,"o":"m 286 221 b 273 184 256 148 236 115 b 217 83 193 41 160 23 b 93 -14 88 154 89 186 b 90 229 96 272 108 313 b 171 316 241 366 229 435 b 222 472 186 488 151 484 b 101 479 62 446 35 405 b -18 325 -35 213 -21 119 b -14 75 2 28 38 -1 b 71 -27 114 -29 154 -17 b 199 -3 228 36 253 74 b 284 120 308 171 325 224 b 333 246 292 238 286 221 z m 137 393 b 142 402 149 423 157 430 b 171 442 182 425 183 410 b 183 376 151 352 120 350 b 125 365 131 379 137 393 z"},"b":{"x_min":0,"x_max":462,"ha":462,"o":"m 470 215 b 444 202 416 192 388 181 b 388 183 388 184 389 185 b 392 247 388 314 362 371 b 342 415 293 465 239 460 b 172 453 141 385 121 330 b 115 312 110 295 104 278 b 103 314 101 349 100 385 b 100 389 100 392 100 396 b 169 452 229 526 278 598 b 335 681 395 812 319 902 b 288 939 244 952 198 943 b 139 932 97 892 64 844 b -8 739 -22 599 -24 474 b -25 401 -22 327 -14 254 b -9 215 -4 177 4 139 b 12 107 20 62 48 42 b 64 32 86 39 95 55 b 105 72 109 91 111 112 b 119 156 128 201 139 244 b 152 293 165 344 190 387 b 205 411 235 438 260 410 b 273 396 280 365 284 346 b 294 302 292 256 291 211 b 290 190 289 166 285 142 b 224 119 164 92 110 53 b 71 24 22 -19 47 -73 b 71 -127 139 -139 191 -125 b 315 -91 370 26 385 144 b 419 156 452 169 485 184 b 512 197 497 227 470 215 z m 122 705 b 132 751 146 798 168 840 b 176 856 187 870 199 883 b 202 886 213 893 210 892 b 221 895 233 894 244 890 b 289 873 307 823 305 778 b 303 725 279 674 251 630 b 210 564 156 515 99 466 b 100 546 105 627 122 705 z m 205 -36 b 179 -58 116 -86 94 -45 b 70 -2 156 43 186 60 b 216 77 247 91 278 104 b 267 49 245 -3 205 -36 z"},"%":{"x_min":0,"x_max":679,"ha":679,"o":"m 603 731 b 578 739 543 728 527 707 b 421 565 341 403 267 243 b 230 164 196 84 163 3 b 147 -38 132 -78 117 -119 b 110 -138 104 -158 98 -177 b 92 -199 91 -218 89 -240 b 88 -264 129 -253 138 -242 b 192 -172 228 -89 264 -9 b 300 69 336 148 374 225 b 449 381 537 528 623 678 b 636 700 626 724 603 731 z m 194 392 b 270 417 299 508 276 579 b 256 638 207 694 139 667 b 95 649 63 599 62 550 b 55 542 50 532 50 521 b 49 441 107 364 194 392 z m 109 575 b 114 603 128 629 153 635 b 194 646 221 592 222 559 b 223 536 211 473 190 465 b 192 466 185 467 181 471 b 175 476 171 481 167 488 b 157 506 156 528 151 548 b 145 570 128 577 109 575 z m 462 132 b 430 113 387 62 384 17 b 373 8 366 -4 368 -16 b 378 -95 468 -118 532 -89 b 602 -58 626 11 607 82 b 588 150 520 166 462 132 z m 513 -32 b 485 -35 466 -4 459 18 b 455 31 443 36 430 36 b 438 65 467 97 485 105 b 527 126 558 91 562 51 b 564 22 547 -28 513 -32 z"},"m":{"x_min":0,"x_max":694,"ha":694,"o":"m 688 195 b 665 149 643 103 618 59 b 613 51 590 4 575 16 b 573 17 573 42 573 45 b 572 56 573 66 574 76 b 579 124 578 172 578 220 b 577 266 580 315 566 359 b 555 395 531 429 492 437 b 459 445 425 417 406 394 b 379 360 356 322 336 281 b 333 324 323 367 309 405 b 298 434 282 467 251 477 b 225 486 200 476 182 456 b 139 407 119 333 101 271 b 98 260 95 249 92 238 b 93 302 96 367 104 430 b 111 496 0 475 -5 424 b -14 346 -24 270 -20 191 b -19 155 -16 119 -9 83 b -2 51 3 4 42 -2 b 52 -4 66 2 75 11 b 75 11 75 11 75 11 b 87 22 92 38 94 54 b 108 123 122 191 141 258 b 151 293 162 328 176 362 b 182 377 188 392 196 407 b 197 410 199 413 201 417 b 202 406 204 396 204 386 b 206 362 207 337 209 312 b 213 259 209 204 222 152 b 235 100 316 121 331 163 b 331 164 332 165 332 165 b 348 212 368 257 391 301 b 398 312 455 413 469 397 b 470 396 468 370 468 368 b 468 356 468 344 466 332 b 464 309 462 287 460 265 b 454 215 449 165 449 115 b 450 74 454 19 488 -11 b 511 -31 560 -35 587 -24 b 621 -11 642 23 658 53 b 683 97 705 143 727 188 b 740 214 697 214 688 195 z"},"#":{"x_min":0,"x_max":695,"ha":695,"o":"m 632 390 b 586 394 539 396 492 397 b 495 505 500 612 500 720 b 500 774 400 743 393 702 b 378 602 373 501 372 400 b 365 400 358 400 351 400 b 337 400 323 400 309 400 b 310 438 312 477 314 516 b 318 594 327 672 328 750 b 329 777 293 784 273 781 b 248 777 218 759 212 731 b 189 622 181 508 180 396 b 145 393 109 389 74 382 b 55 378 47 346 71 350 b 107 356 144 359 180 361 b 180 322 181 284 182 246 b 182 228 183 210 184 192 b 147 188 111 184 75 179 b 53 176 36 140 66 144 b 106 149 146 154 186 157 b 188 108 192 60 197 11 b 202 -27 206 -66 215 -103 b 223 -134 235 -174 264 -190 b 283 -201 308 -183 314 -166 b 325 -136 316 -92 314 -61 b 312 -23 312 15 310 53 b 309 89 308 126 307 163 b 331 163 354 163 378 163 b 380 119 383 75 388 32 b 395 -41 400 -119 439 -183 b 450 -201 478 -188 482 -172 b 503 -98 497 -21 495 55 b 494 89 493 124 492 158 b 526 156 560 153 594 149 b 615 146 643 182 614 185 b 573 190 532 194 492 196 b 491 223 491 249 491 276 b 491 304 491 332 492 361 b 532 359 572 357 613 354 b 624 353 638 358 643 369 b 647 378 644 390 632 390 z m 307 199 b 307 227 307 256 307 285 b 307 311 307 337 308 364 b 317 364 327 364 336 364 b 348 364 360 364 372 364 b 372 326 373 288 374 250 b 375 233 375 216 376 200 b 353 200 330 199 307 199 z"},",":{"x_min":0,"x_max":248,"ha":248,"o":"m 98 40 b 89 17 79 -6 69 -29 b 60 -50 50 -71 50 -93 b 50 -121 90 -111 103 -102 b 146 -74 175 -21 194 24 b 221 88 117 88 98 40 z"},"n":{"x_min":0,"x_max":485,"ha":485,"o":"m 476 200 b 457 151 438 102 412 57 b 403 43 371 -9 356 22 b 352 30 358 53 359 62 b 360 77 360 91 360 106 b 360 158 360 209 360 260 b 359 310 364 372 334 415 b 311 447 268 457 234 435 b 199 412 175 369 155 333 b 130 285 109 234 91 182 b 91 194 91 205 91 216 b 93 287 95 359 104 430 b 111 496 0 475 -5 424 b -14 346 -24 270 -20 191 b -19 155 -16 119 -9 83 b -2 51 3 4 42 -2 b 52 -4 66 2 75 11 b 75 11 75 11 75 11 b 83 18 87 27 90 36 b 92 38 94 41 95 44 b 110 111 130 177 156 241 b 168 270 182 298 196 326 b 204 341 213 355 222 369 b 227 377 241 399 253 406 b 254 393 250 378 248 368 b 245 350 243 332 241 314 b 237 274 232 233 230 193 b 227 127 223 28 288 -10 b 423 -91 484 111 519 203 b 528 226 483 219 476 200 z"},"h":{"x_min":0,"x_max":463,"ha":463,"o":"m 452 211 b 435 158 418 104 392 55 b 388 47 352 -20 340 -5 b 339 -4 342 19 342 24 b 342 33 343 42 343 51 b 342 108 345 165 349 222 b 352 276 357 331 344 384 b 334 424 303 461 258 464 b 216 466 187 423 168 391 b 142 347 122 298 106 248 b 104 294 102 340 100 385 b 100 389 100 392 100 396 b 169 452 229 526 278 598 b 335 681 395 812 319 902 b 288 939 244 952 198 943 b 139 932 97 892 64 844 b -8 739 -22 599 -24 474 b -25 401 -22 327 -14 254 b -9 215 -4 177 4 139 b 12 107 20 62 48 42 b 64 32 86 39 95 55 b 106 74 110 96 111 120 b 123 165 136 209 151 253 b 169 306 189 363 224 407 b 227 412 231 417 235 421 b 245 421 249 417 247 408 b 250 398 244 382 242 371 b 239 347 237 322 235 298 b 230 240 220 182 217 124 b 215 77 213 13 246 -24 b 270 -50 324 -56 356 -42 b 400 -23 423 25 442 66 b 464 114 480 164 496 213 b 504 238 459 230 452 211 z m 122 705 b 132 751 146 798 168 840 b 176 856 187 870 199 883 b 202 886 213 893 210 892 b 221 895 233 894 244 890 b 289 873 307 823 305 778 b 303 725 279 674 251 630 b 210 564 156 515 99 466 b 100 546 105 627 122 705 z"},"z":{"x_min":0,"x_max":380,"ha":380,"o":"m 394 235 b 349 224 306 209 265 189 b 262 194 259 198 256 202 b 239 225 215 242 189 253 b 222 297 242 350 228 405 b 219 438 184 448 153 450 b 105 455 56 451 8 445 b -13 443 -29 408 0 411 b 33 415 66 417 99 416 b 121 416 168 419 180 394 b 192 372 154 328 140 311 b 123 290 104 270 81 257 b 64 247 42 230 45 207 b 47 186 69 175 88 177 b 126 182 152 163 170 135 b 157 126 145 117 133 108 b 95 78 58 43 28 5 b -2 -33 -34 -79 -40 -128 b -53 -239 78 -233 148 -203 b 197 -183 232 -153 258 -107 b 283 -63 295 -13 298 37 b 301 79 297 121 281 159 b 318 177 356 190 396 200 b 422 206 424 242 394 235 z m 196 -20 b 190 -66 174 -104 144 -138 b 131 -154 120 -167 100 -175 b 78 -184 45 -189 25 -173 b -19 -139 20 -72 43 -37 b 71 4 106 41 144 73 b 157 83 171 94 184 103 b 198 62 201 13 196 -20 z"},"B":{"x_min":0,"x_max":1091,"ha":1091,"o":"m 841 506 b 756 541 665 546 575 537 b 664 612 750 692 820 786 b 841 815 861 845 875 879 b 887 908 901 943 896 976 b 883 1048 792 1023 746 1005 b 608 950 497 825 416 705 b 330 576 269 430 223 282 b 204 223 189 163 176 102 b 173 174 171 246 171 318 b 170 528 180 738 196 948 b 199 975 160 982 141 979 b 117 975 81 956 78 928 b 54 717 46 504 52 292 b 55 188 60 84 71 -19 b 76 -71 82 -122 91 -174 b 95 -199 99 -225 105 -250 b 111 -275 115 -307 130 -329 b 144 -350 178 -335 184 -314 b 191 -290 189 -264 189 -239 b 190 -212 189 -186 188 -159 b 187 -144 186 -128 185 -113 b 209 131 277 373 392 588 b 454 705 534 815 638 898 b 663 918 689 937 718 953 b 746 969 793 994 827 986 b 864 978 849 927 837 903 b 821 871 798 843 774 817 b 659 694 519 591 383 493 b 367 481 351 456 361 435 b 371 414 400 412 420 417 b 523 443 636 465 741 433 b 822 409 897 354 928 274 b 964 180 921 74 860 1 b 799 -73 716 -128 633 -175 b 524 -236 409 -283 289 -320 b 270 -326 247 -343 249 -365 b 251 -388 277 -392 295 -387 b 419 -353 540 -302 654 -241 b 755 -187 855 -123 930 -36 b 1005 51 1060 171 1034 287 b 1012 388 934 466 841 506 z"},"K":{"x_min":0,"x_max":632,"ha":632,"o":"m 337 328 b 386 270 399 180 414 109 b 448 -47 486 -232 627 -329 b 691 -372 776 -386 835 -326 b 855 -306 820 -291 803 -306 b 764 -341 713 -316 682 -282 b 652 -248 629 -204 612 -162 b 572 -68 551 29 527 128 b 506 215 485 325 411 383 b 353 429 279 431 207 424 b 304 494 394 572 475 659 b 561 750 636 855 659 980 b 663 1004 622 997 619 978 b 595 856 520 755 435 668 b 355 584 265 508 170 441 b 172 516 175 591 180 666 b 187 768 201 870 203 972 b 203 998 169 1005 150 1002 b 125 998 97 980 91 954 b 67 848 62 736 56 628 b 51 523 49 419 51 314 b 53 210 58 105 70 2 b 76 -50 83 -102 92 -153 b 98 -183 101 -257 140 -263 b 153 -265 168 -257 175 -246 b 175 -245 176 -245 176 -244 b 178 -241 179 -236 178 -232 b 179 -223 182 -214 183 -204 b 183 -194 183 -183 183 -172 b 184 -146 182 -120 181 -95 b 179 -46 177 3 175 52 b 171 156 169 259 169 362 b 169 369 170 376 170 382 b 232 386 294 379 337 328 z"},"R":{"x_min":0,"x_max":754,"ha":754,"o":"m 359 33 b 382 -29 408 -93 448 -147 b 487 -199 532 -235 593 -258 b 648 -279 707 -288 766 -273 b 792 -266 795 -229 762 -236 b 636 -263 558 -141 507 -45 b 479 11 457 70 431 127 b 418 157 402 193 379 223 b 411 242 441 268 465 289 b 520 339 567 396 606 460 b 677 578 729 742 677 877 b 653 937 595 961 535 941 b 468 918 416 860 378 804 b 289 675 245 522 217 370 b 201 286 188 201 178 116 b 176 179 176 242 176 305 b 175 502 185 699 191 896 b 192 923 156 929 137 926 b 114 922 79 904 76 877 b 53 676 48 474 50 272 b 51 175 55 78 64 -19 b 69 -65 75 -112 86 -158 b 96 -203 108 -256 141 -290 b 156 -307 192 -289 196 -269 b 202 -240 201 -210 198 -181 b 201 -49 215 83 234 213 b 236 206 241 201 250 198 b 265 192 280 191 296 192 b 309 176 316 151 322 133 b 335 100 347 66 359 33 z m 244 254 b 242 252 240 249 239 246 b 240 253 241 259 242 265 b 262 396 287 529 340 652 b 366 714 398 775 441 827 b 476 869 552 946 608 894 b 655 851 641 779 628 725 b 612 660 587 598 554 541 b 521 481 481 426 433 378 b 411 356 388 336 363 317 b 336 297 313 285 280 276 b 280 276 280 276 280 276 b 267 273 254 265 244 254 z"},"T":{"x_min":0,"x_max":767,"ha":767,"o":"m 1107 987 b 1122 1011 1078 1012 1067 994 b 1016 911 898 894 809 891 b 749 889 690 894 630 900 b 620 904 609 905 599 903 b 561 907 524 911 486 913 b 390 917 289 912 198 878 b 133 855 33 794 52 711 b 58 689 99 703 95 723 b 84 773 133 812 173 832 b 216 853 265 864 312 870 b 389 881 465 877 541 871 b 534 861 529 849 529 836 b 517 651 520 466 528 282 b 532 190 540 99 551 7 b 562 -82 578 -173 615 -255 b 631 -290 686 -256 688 -228 b 692 -135 683 -41 676 52 b 669 142 665 233 662 323 b 657 502 663 681 656 860 b 740 853 825 850 908 867 b 986 884 1064 917 1107 987 z"},"P":{"x_min":0,"x_max":846,"ha":846,"o":"m 719 226 b 766 307 787 398 794 490 b 801 584 796 680 772 772 b 750 855 706 942 633 991 b 565 1037 485 1022 428 968 b 362 906 326 816 300 731 b 271 634 251 533 236 433 b 220 325 208 217 199 108 b 193 176 188 245 184 313 b 178 416 176 520 176 624 b 176 727 182 830 177 932 b 174 988 77 956 70 915 b 52 808 50 698 50 590 b 50 487 55 383 62 280 b 70 177 82 74 98 -28 b 114 -132 131 -238 174 -334 b 187 -363 234 -335 235 -312 b 236 -265 233 -218 228 -171 b 233 -21 243 129 261 279 b 281 451 304 629 365 791 b 390 857 432 951 504 977 b 582 1004 646 926 671 862 b 703 782 707 695 707 610 b 707 533 702 456 682 380 b 663 307 630 215 564 171 b 492 124 401 184 375 255 b 364 282 310 257 313 232 b 326 143 395 77 486 74 b 590 71 669 141 719 226 z"},"|":{"x_min":0,"x_max":245,"ha":245,"o":"m 195 -233 b 180 -43 171 146 168 336 b 166 428 164 521 157 614 b 153 661 149 709 143 757 b 136 802 131 849 109 889 b 98 909 65 894 61 876 b 49 829 51 781 51 732 b 51 685 51 638 51 591 b 50 496 50 400 50 305 b 50 115 48 -76 82 -263 b 93 -324 199 -286 195 -233 z"},"t":{"x_min":0,"x_max":271,"ha":271,"o":"m 262 222 b 251 186 239 150 224 116 b 210 85 194 46 169 23 b 131 -13 118 74 115 96 b 110 134 108 173 105 212 b 99 294 100 378 101 461 b 102 491 103 522 103 553 b 112 553 121 554 130 554 b 153 555 169 591 139 590 b 127 589 115 589 104 588 b 104 630 102 672 98 713 b 94 743 60 749 37 742 b 8 735 -16 713 -17 683 b -19 647 -20 611 -20 575 b -33 573 -46 570 -59 568 b -85 563 -87 528 -57 534 b -45 536 -33 538 -21 540 b -22 482 -22 424 -21 366 b -20 272 -22 163 17 75 b 34 36 58 3 99 -12 b 132 -25 165 -27 194 -3 b 224 23 244 65 260 100 b 278 140 291 182 304 224 b 312 248 268 240 262 222 z"},"M":{"x_min":0,"x_max":1222,"ha":1222,"o":"m 1039 440 b 1029 262 1013 83 1021 -96 b 1025 -188 1032 -285 1058 -374 b 1083 -458 1135 -523 1223 -543 b 1252 -550 1300 -507 1264 -485 b 1201 -446 1179 -360 1165 -292 b 1148 -201 1141 -107 1137 -14 b 1130 170 1147 355 1142 539 b 1139 627 1140 720 1115 805 b 1097 867 1060 944 981 921 b 910 901 860 824 824 764 b 782 692 748 616 719 538 b 681 435 652 328 630 219 b 629 266 628 314 626 361 b 624 429 619 496 608 563 b 599 625 586 690 558 746 b 537 787 504 824 454 813 b 401 801 363 752 337 708 b 270 599 239 467 215 343 b 205 288 196 233 188 178 b 186 208 184 239 182 270 b 175 432 180 594 193 755 b 195 785 154 792 134 788 b 108 784 71 764 67 735 b 48 573 45 410 56 247 b 61 167 70 86 85 7 b 92 -31 100 -68 109 -106 b 118 -143 127 -184 148 -216 b 154 -225 163 -229 174 -228 b 175 -228 177 -228 178 -228 b 192 -226 213 -216 215 -200 b 219 -170 218 -139 216 -108 b 216 -107 216 -105 216 -104 b 208 20 226 145 246 267 b 265 385 290 503 335 613 b 355 663 380 716 419 755 b 438 773 464 787 486 766 b 506 747 507 717 509 692 b 520 572 523 453 520 332 b 516 195 506 56 519 -81 b 525 -145 641 -106 638 -50 b 637 -32 636 -14 635 4 b 659 156 687 308 734 454 b 758 531 787 605 823 677 b 857 745 898 831 963 874 b 1063 940 1052 745 1051 699 b 1050 612 1044 526 1039 440 z"},"g":{"x_min":0,"x_max":440,"ha":440,"o":"m 432 225 b 420 178 371 141 329 111 b 329 145 329 179 329 213 b 329 290 330 369 323 445 b 320 476 283 482 258 476 b 229 468 207 447 203 417 b 202 415 202 412 201 410 b 192 438 170 457 133 454 b 82 451 42 410 18 368 b -28 290 -46 164 -3 81 b 17 43 60 21 103 27 b 142 32 166 66 181 100 b 193 130 200 162 205 193 b 208 152 210 112 211 71 b 212 59 212 46 213 34 b 195 22 176 11 158 -1 b 83 -50 -46 -124 -26 -231 b -8 -331 106 -364 190 -323 b 303 -268 317 -115 324 -5 b 326 20 327 44 328 69 b 346 81 363 94 380 108 b 419 140 463 177 476 228 b 482 253 437 245 432 225 z m 163 199 b 157 168 151 136 139 107 b 135 98 125 71 114 68 b 94 63 90 93 87 106 b 75 169 74 230 90 293 b 97 320 105 352 122 376 b 123 377 126 379 128 382 b 131 378 135 373 136 372 b 140 364 144 357 147 349 b 155 332 175 336 190 346 b 180 297 171 248 163 199 z m 183 -246 b 165 -288 124 -312 79 -292 b 39 -275 14 -228 20 -186 b 28 -135 79 -100 117 -72 b 148 -48 181 -27 214 -6 b 217 -87 216 -172 183 -246 z"},"j":{"x_min":0,"x_max":230,"ha":230,"o":"m 222 225 b 210 178 161 141 119 111 b 119 145 119 179 119 213 b 119 290 120 369 113 445 b 110 476 73 482 48 476 b 18 467 -5 445 -8 413 b -17 300 -2 184 1 71 b 2 59 2 46 3 34 b -15 22 -34 11 -52 -1 b -127 -50 -256 -124 -236 -231 b -218 -331 -104 -364 -20 -323 b 93 -268 107 -115 114 -5 b 116 20 117 44 118 69 b 136 81 153 94 170 108 b 209 140 253 177 266 228 b 272 253 227 245 222 225 z m -27 -246 b -45 -288 -86 -312 -131 -292 b -171 -275 -196 -228 -190 -186 b -182 -135 -131 -100 -93 -72 b -62 -48 -29 -27 4 -6 b 7 -87 6 -172 -27 -246 z m 33 541 b 35 536 41 534 48 534 b 56 532 64 535 70 541 b 75 544 79 548 81 553 b 93 588 114 620 128 654 b 138 676 156 718 132 737 b 110 756 77 734 62 715 b 60 712 58 709 56 706 b 51 719 44 730 36 739 b 15 761 -21 752 -32 725 b -46 694 -28 649 -16 619 b -6 593 8 557 33 541 z"},"i":{"x_min":0,"x_max":234,"ha":234,"o":"m 228 228 b 213 173 192 120 164 70 b 155 55 131 1 110 23 b 96 38 100 81 99 100 b 95 222 110 341 115 463 b 117 490 79 497 60 494 b 34 489 3 471 -3 443 b -18 363 -23 280 -20 198 b -17 131 -16 35 47 -6 b 69 -20 100 -30 126 -23 b 153 -15 170 7 184 29 b 224 91 252 159 268 230 b 274 254 233 246 228 228 z m 42 540 b 49 529 78 533 85 548 b 102 584 126 615 144 650 b 155 671 177 711 154 732 b 131 752 96 729 80 710 b 79 709 77 707 76 705 b 73 718 68 729 61 739 b 44 763 10 761 -7 737 b -26 709 -13 664 -5 634 b 2 606 14 557 42 540 z"},"y":{"x_min":0,"x_max":499,"ha":499,"o":"m 492 225 b 480 178 430 141 388 111 b 389 145 389 179 389 213 b 388 290 390 369 382 445 b 379 476 343 482 318 476 b 296 470 278 457 269 438 b 269 438 269 438 269 438 b 254 414 249 384 243 357 b 235 329 229 300 221 272 b 206 214 189 147 150 101 b 144 93 131 77 120 79 b 109 81 105 100 103 110 b 95 139 92 169 92 199 b 90 266 99 333 101 399 b 102 426 66 433 47 430 b 23 426 -11 407 -14 380 b -25 300 -32 210 -9 131 b 10 67 66 16 135 46 b 195 71 223 142 243 200 b 250 220 255 240 261 261 b 264 197 269 134 271 71 b 271 59 272 46 272 34 b 254 22 236 11 218 -1 b 143 -50 14 -124 33 -231 b 52 -331 165 -364 249 -323 b 362 -268 376 -115 384 -5 b 385 20 387 44 387 69 b 405 81 422 94 439 108 b 478 140 522 177 535 228 b 541 253 497 245 492 225 z m 243 -246 b 224 -288 184 -312 138 -292 b 98 -275 73 -228 80 -186 b 88 -135 138 -100 176 -72 b 208 -48 241 -27 274 -6 b 276 -87 275 -172 243 -246 z"},"@":{"x_min":0,"x_max":897,"ha":897,"o":"m 806 544 b 716 735 473 750 305 659 b 125 561 28 359 54 157 b 69 47 119 -58 217 -115 b 305 -167 413 -172 506 -134 b 535 -122 519 -90 490 -101 b 418 -130 335 -123 267 -89 b 190 -51 140 20 116 101 b 66 269 116 468 252 582 b 379 687 595 726 718 593 b 830 471 825 248 748 111 b 727 74 684 14 643 63 b 629 81 627 106 622 128 b 617 150 612 173 609 195 b 593 303 623 409 612 517 b 608 554 558 540 538 517 b 535 515 533 512 532 509 b 530 505 528 500 527 496 b 477 537 403 524 355 480 b 296 424 260 332 248 253 b 242 214 240 169 260 134 b 279 103 317 87 353 91 b 422 99 458 169 482 229 b 482 202 485 175 491 149 b 510 63 605 -34 700 10 b 789 51 828 175 841 264 b 854 357 847 458 806 544 z m 466 301 b 454 265 440 229 421 196 b 413 182 405 166 394 155 b 389 149 378 136 369 142 b 364 145 362 158 361 162 b 339 231 350 295 373 363 b 383 396 398 428 417 456 b 427 470 435 484 452 485 b 475 486 492 471 506 455 b 508 453 510 452 512 451 b 497 401 483 351 466 301 z"},".":{"x_min":0,"x_max":186,"ha":186,"o":"m 111 54 b 92 55 74 45 65 30 b 52 9 41 -29 62 -48 b 75 -60 99 -52 110 -40 b 125 -22 131 4 136 26 b 139 43 126 54 111 54 z"},"p":{"x_min":0,"x_max":503,"ha":503,"o":"m 512 222 b 482 209 450 201 417 194 b 418 209 418 224 418 239 b 416 301 404 376 358 423 b 250 533 167 335 141 254 b 122 194 107 133 95 71 b 99 189 114 307 120 425 b 122 451 85 458 67 455 b 43 451 11 433 7 406 b -11 283 -20 157 -22 32 b -23 -30 -20 -91 -14 -152 b -12 -182 -7 -211 0 -240 b 7 -267 12 -300 40 -313 b 51 -318 67 -312 74 -303 b 93 -280 93 -255 94 -227 b 95 -211 95 -196 95 -181 b 111 -91 127 -1 144 88 b 164 186 184 294 240 379 b 255 402 287 440 308 397 b 319 376 320 345 321 321 b 324 272 323 222 316 173 b 314 172 312 172 310 171 b 256 157 192 133 169 77 b 149 28 168 -18 215 -42 b 241 -55 282 -46 307 -33 b 338 -18 362 8 379 38 b 400 75 411 118 415 161 b 453 169 490 178 526 194 b 552 205 538 234 512 222 z m 271 39 b 260 28 254 22 238 23 b 210 25 203 60 212 81 b 228 116 270 131 311 141 b 305 105 295 64 271 39 z"},"X":{"x_min":0,"x_max":768,"ha":768,"o":"m 808 -167 b 823 -143 781 -144 770 -161 b 747 -196 691 -193 662 -168 b 631 -141 610 -103 593 -67 b 554 18 527 111 500 200 b 469 301 445 403 420 506 b 506 592 595 676 675 767 b 707 804 738 843 767 883 b 792 920 817 957 815 1003 b 814 1025 775 1012 775 993 b 775 946 739 903 712 868 b 685 833 657 799 628 767 b 568 700 503 636 438 573 b 429 564 420 555 411 546 b 395 613 378 680 360 746 b 334 840 301 940 239 1017 b 211 1052 128 1003 147 960 b 167 915 190 871 207 825 b 224 779 239 732 251 684 b 273 604 290 522 310 441 b 236 360 168 274 117 177 b 72 91 36 -8 55 -106 b 60 -131 105 -115 101 -94 b 84 -1 117 89 159 170 b 199 249 252 320 310 387 b 313 391 317 395 320 399 b 321 394 322 390 324 385 b 351 279 382 173 418 70 b 449 -20 486 -129 570 -184 b 639 -229 759 -249 808 -167 z"},"*":{"x_min":0,"x_max":314,"ha":314,"o":"m 247 660 b 231 660 214 660 198 659 b 210 671 222 682 234 694 b 242 701 241 713 232 718 b 221 724 208 716 200 709 b 192 701 184 693 175 685 b 175 700 176 714 176 729 b 175 753 130 740 128 721 b 127 712 126 704 126 695 b 117 705 107 714 97 723 b 83 734 50 714 65 698 b 79 684 90 669 103 655 b 94 654 85 653 76 653 b 53 651 36 614 67 616 b 81 617 94 618 108 619 b 96 607 84 595 72 583 b 65 576 65 564 75 559 b 85 554 99 560 106 568 b 113 575 120 582 127 589 b 128 574 129 559 130 545 b 132 521 172 536 172 556 b 172 567 173 578 173 589 b 182 580 192 572 201 564 b 217 549 256 576 238 591 b 226 602 214 612 202 623 b 214 623 226 623 238 623 b 262 623 278 660 247 660 z"},"Y":{"x_min":0,"x_max":830,"ha":830,"o":"m 721 607 b 708 705 687 801 664 897 b 650 958 540 921 550 867 b 552 855 554 843 556 831 b 555 665 529 496 452 347 b 432 308 408 265 372 239 b 327 207 283 221 251 262 b 199 327 182 414 175 494 b 163 608 173 723 184 836 b 191 907 75 884 67 829 b 50 710 43 589 59 469 b 72 373 105 268 188 209 b 275 148 380 178 443 258 b 505 337 542 440 566 537 b 575 572 581 607 586 643 b 603 524 617 404 621 285 b 517 230 425 153 360 55 b 291 -48 227 -226 347 -318 b 468 -410 604 -276 654 -170 b 726 -20 742 159 741 323 b 740 418 733 513 721 607 z m 609 -20 b 601 -80 594 -142 573 -198 b 551 -255 503 -320 433 -310 b 368 -300 330 -232 326 -172 b 322 -105 350 -38 383 19 b 439 117 524 194 622 249 b 624 159 620 69 609 -20 z"},"c":{"x_min":0,"x_max":274,"ha":274,"o":"m 269 218 b 250 158 219 99 176 53 b 164 40 148 25 129 26 b 113 26 111 37 106 50 b 95 79 90 107 89 138 b 86 201 90 266 109 327 b 117 351 126 376 140 398 b 143 403 146 408 150 412 b 152 415 154 417 156 419 b 160 423 160 423 157 418 b 173 414 178 388 181 375 b 186 350 231 365 228 387 b 222 426 207 463 166 473 b 116 485 67 449 38 411 b -21 333 -37 213 -19 119 b -10 77 5 28 45 4 b 79 -16 127 -19 162 -1 b 201 18 228 56 250 92 b 276 132 295 175 308 221 b 315 243 274 236 269 218 z"},"!":{"x_min":0,"x_max":238,"ha":238,"o":"m 188 99 b 179 225 170 351 164 477 b 162 537 160 599 151 659 b 146 695 138 783 83 768 b 73 765 64 757 64 746 b 62 721 57 696 56 671 b 55 641 54 611 54 582 b 53 526 52 469 51 413 b 50 298 46 180 70 68 b 83 4 192 44 188 99 z m 106 -70 b 100 -95 101 -123 100 -149 b 99 -172 131 -176 147 -172 b 167 -166 188 -149 188 -126 b 187 -101 186 -74 173 -51 b 158 -24 112 -45 106 -70 z"},"/":{"x_min":0,"x_max":683,"ha":683,"o":"m 600 812 b 567 817 537 798 519 772 b 415 616 331 444 249 276 b 209 192 171 108 134 23 b 115 -20 98 -64 82 -108 b 66 -150 50 -193 50 -238 b 50 -269 99 -254 111 -240 b 171 -170 206 -74 245 9 b 285 94 325 178 367 262 b 450 428 545 588 628 754 b 640 780 629 806 600 812 z"},"[":{"x_min":0,"x_max":383,"ha":383,"o":"m 267 -205 b 246 -223 232 -181 227 -167 b 211 -121 199 -74 190 -26 b 172 73 166 175 162 277 b 157 381 158 485 159 590 b 160 641 160 691 165 742 b 166 757 166 785 177 796 b 194 812 236 804 255 798 b 270 794 298 822 277 829 b 237 843 198 842 158 827 b 116 811 101 780 87 739 b 55 638 53 527 51 422 b 47 218 48 2 113 -194 b 128 -238 151 -283 202 -291 b 250 -299 304 -277 328 -233 b 349 -193 290 -185 267 -205 z"},"6":{"x_min":0,"x_max":548,"ha":548,"o":"m 313 -118 b 439 -95 551 62 470 181 b 433 236 364 262 300 257 b 250 253 204 233 164 205 b 161 302 180 397 211 490 b 228 542 253 592 290 633 b 306 651 326 671 350 679 b 377 687 405 667 417 643 b 426 624 465 643 457 663 b 435 718 363 733 311 719 b 239 701 184 640 147 578 b 109 514 86 440 70 367 b 53 289 44 207 54 127 b 71 -2 164 -145 313 -118 z m 413 175 b 452 134 458 70 435 20 b 414 -25 362 -77 307 -68 b 265 -60 228 -17 208 19 b 186 61 174 106 168 152 b 168 155 168 157 167 160 b 237 218 342 249 413 175 z"},"r":{"x_min":0,"x_max":426,"ha":426,"o":"m 441 244 b 423 238 398 231 379 239 b 366 245 357 259 350 271 b 330 301 326 335 317 369 b 304 426 252 476 199 426 b 151 381 133 301 115 240 b 110 225 106 211 102 196 b 102 254 104 313 107 371 b 108 403 63 408 41 402 b 10 394 -14 370 -17 338 b -22 270 -22 202 -18 134 b -17 102 -13 68 -7 36 b -1 5 5 -29 30 -51 b 46 -65 75 -53 84 -36 b 96 -14 99 8 101 32 b 116 94 132 156 150 217 b 161 251 171 285 184 319 b 190 336 197 353 205 369 b 209 377 214 385 219 393 b 225 402 228 412 239 404 b 253 394 245 371 245 356 b 244 337 242 318 243 299 b 245 271 252 240 273 218 b 316 174 399 192 449 212 b 471 221 466 252 441 244 z"},"2":{"x_min":0,"x_max":581,"ha":581,"o":"m 126 -127 b 185 -130 241 -107 289 -75 b 300 -78 311 -82 322 -85 b 384 -104 447 -112 511 -100 b 537 -95 539 -60 508 -65 b 447 -76 387 -64 329 -45 b 447 56 499 218 514 367 b 522 446 516 528 488 602 b 468 656 419 709 362 722 b 222 755 79 581 118 449 b 124 430 165 449 159 469 b 144 520 167 582 199 622 b 232 663 291 702 345 684 b 394 668 406 610 413 566 b 423 505 421 443 413 383 b 399 269 367 154 301 59 b 284 34 265 10 242 -12 b 188 11 122 35 73 -14 b 55 -32 44 -59 53 -84 b 63 -114 97 -125 126 -127 z m 133 -22 b 158 -21 183 -32 206 -42 b 204 -44 201 -46 198 -48 b 179 -61 158 -76 133 -77 b 89 -79 90 -24 133 -22 z"},"{":{"x_min":0,"x_max":547,"ha":547,"o":"m 474 -213 b 414 -217 378 -143 361 -96 b 337 -30 328 42 317 111 b 307 175 303 248 276 309 b 259 347 228 374 191 388 b 242 454 282 526 312 605 b 329 650 337 699 348 746 b 354 771 360 798 372 821 b 379 836 409 895 432 883 b 450 874 482 902 460 915 b 412 942 367 886 343 852 b 309 800 281 744 256 688 b 205 573 147 465 62 371 b 36 343 54 303 94 307 b 163 314 180 238 190 185 b 202 114 210 43 226 -27 b 240 -90 259 -161 302 -211 b 343 -259 410 -279 470 -260 b 495 -253 513 -211 474 -213 z"},"9":{"x_min":0,"x_max":580,"ha":580,"o":"m 408 69 b 400 11 394 -51 363 -104 b 351 -124 361 -148 383 -154 b 408 -162 439 -151 455 -131 b 500 -76 514 -9 521 60 b 528 132 530 204 530 276 b 530 349 527 422 522 495 b 519 533 516 570 512 608 b 509 640 506 674 488 702 b 475 723 447 722 427 712 b 405 701 392 683 383 663 b 327 703 247 683 193 644 b 125 596 79 520 58 441 b 37 364 55 252 150 240 b 241 228 311 315 355 383 b 380 424 400 468 417 513 b 418 498 419 483 419 468 b 422 400 422 332 420 264 b 419 199 416 134 408 69 z m 318 479 b 302 440 283 400 260 364 b 241 335 206 285 165 300 b 78 334 113 481 147 539 b 188 607 293 697 367 618 b 367 618 367 618 367 618 b 365 612 363 607 362 602 b 348 561 334 519 318 479 z"}," ":{"x_min":0,"x_max":292,"ha":292,"o":""},"I":{"x_min":0,"x_max":607,"ha":607,"o":"m 620 -168 b 583 -179 547 -189 511 -200 b 504 -85 497 30 497 145 b 498 308 509 472 499 635 b 495 715 487 794 466 872 b 449 933 420 1002 367 1041 b 256 1123 134 973 95 882 b 67 817 54 748 51 678 b 48 608 52 533 102 480 b 116 465 153 490 137 507 b 96 553 94 618 96 677 b 99 734 108 792 126 847 b 146 903 177 959 224 996 b 248 1015 280 1032 311 1020 b 340 1009 356 982 367 954 b 390 892 394 822 397 756 b 400 684 399 612 397 540 b 393 396 379 251 375 107 b 372 -7 369 -123 379 -238 b 358 -244 337 -250 316 -256 b 291 -263 289 -298 318 -290 b 340 -284 361 -278 382 -272 b 386 -307 391 -341 397 -376 b 410 -441 521 -400 518 -343 b 517 -307 515 -271 513 -234 b 549 -224 586 -214 622 -203 b 648 -196 650 -160 620 -168 z"},"H":{"x_min":0,"x_max":958,"ha":958,"o":"m 1087 -300 b 1107 -287 1088 -265 1069 -276 b 967 -336 913 -193 889 -121 b 855 -23 829 78 814 181 b 798 284 791 388 793 492 b 793 508 794 523 794 538 b 800 543 805 547 811 551 b 893 613 967 690 1004 789 b 1030 859 1053 1008 950 1030 b 844 1052 763 914 730 834 b 687 731 671 621 667 511 b 667 505 667 500 667 494 b 586 442 506 389 429 331 b 403 312 378 293 353 273 b 352 451 366 627 377 805 b 379 834 339 841 319 838 b 292 833 258 814 253 784 b 219 603 214 412 221 227 b 222 204 223 180 225 156 b 209 140 194 124 180 108 b 116 35 34 -69 53 -172 b 57 -197 103 -182 99 -160 b 88 -100 118 -45 149 4 b 172 40 199 74 228 106 b 232 54 237 3 244 -49 b 250 -93 257 -136 266 -179 b 274 -212 280 -282 318 -294 b 340 -300 367 -290 374 -266 b 386 -225 379 -181 376 -139 b 373 -94 369 -49 366 -5 b 361 73 356 150 354 227 b 408 273 465 315 523 356 b 570 389 618 420 666 451 b 665 353 673 255 690 159 b 713 32 750 -97 817 -208 b 869 -295 992 -361 1087 -300 z m 822 779 b 830 813 902 1039 958 964 b 984 930 979 874 971 835 b 961 787 940 743 912 703 b 880 657 840 619 796 584 b 800 650 807 715 822 779 z"},"4":{"x_min":0,"x_max":600,"ha":600,"o":"m 118 99 b 153 111 183 134 206 162 b 215 174 224 187 232 201 b 292 212 355 214 416 213 b 418 156 421 98 428 41 b 432 5 436 -32 444 -68 b 450 -100 455 -133 485 -149 b 495 -155 510 -149 517 -141 b 539 -113 540 -82 541 -48 b 542 -12 541 24 541 60 b 541 134 540 207 541 280 b 541 422 558 565 546 706 b 542 757 461 724 452 691 b 413 549 414 399 415 252 b 415 251 415 250 415 249 b 360 250 305 248 251 239 b 273 290 286 346 297 398 b 319 501 325 607 315 712 b 313 736 270 721 271 701 b 278 613 275 524 260 438 b 249 370 234 294 203 230 b 200 229 198 228 195 228 b 160 219 124 208 95 187 b 75 173 44 143 51 116 b 58 86 97 92 118 99 z m 102 145 b 111 168 150 181 179 188 b 168 174 156 160 142 150 b 134 144 92 117 102 145 z"},"D":{"x_min":0,"x_max":942,"ha":942,"o":"m 804 799 b 752 892 656 965 549 911 b 452 862 387 751 341 657 b 283 537 248 407 222 277 b 212 227 202 175 193 124 b 188 188 184 253 181 318 b 174 485 182 652 187 819 b 188 847 151 854 130 851 b 105 847 70 828 66 799 b 44 626 47 448 59 274 b 65 188 75 103 88 18 b 95 -25 103 -69 113 -111 b 123 -151 131 -185 164 -211 b 183 -226 226 -206 216 -179 b 210 -163 216 -136 215 -118 b 215 -109 214 -100 213 -91 b 216 6 234 104 251 200 b 269 300 291 400 322 498 b 354 596 396 692 457 776 b 512 852 611 945 699 854 b 735 816 749 759 761 710 b 774 653 781 596 786 537 b 794 425 787 310 768 199 b 750 94 721 -9 667 -102 b 626 -173 554 -264 460 -240 b 334 -209 367 -53 411 31 b 458 124 535 200 632 240 b 660 251 644 282 616 271 b 520 231 439 160 383 72 b 330 -12 273 -142 319 -240 b 378 -365 547 -340 640 -275 b 744 -204 804 -78 842 39 b 881 161 895 293 892 421 b 888 550 868 685 804 799 z"},"^":{"x_min":0,"x_max":357,"ha":357,"o":"m 306 617 b 296 656 276 693 254 727 b 232 761 210 806 163 802 b 108 797 86 748 70 702 b 58 669 38 613 60 580 b 74 559 104 568 119 584 b 138 604 149 629 159 655 b 173 630 185 602 200 577 b 213 556 241 555 262 563 b 281 570 312 593 306 617 z"},"0":{"x_min":0,"x_max":522,"ha":522,"o":"m 166 -124 b 227 -156 304 -144 357 -103 b 416 -58 441 15 456 84 b 471 157 474 232 471 306 b 468 381 460 455 434 526 b 412 584 379 654 328 692 b 277 730 209 727 162 684 b 122 648 90 583 91 526 b 88 521 85 516 84 511 b 65 433 56 354 52 274 b 49 199 48 121 62 47 b 76 -20 101 -91 166 -124 z m 185 660 b 229 705 289 676 322 633 b 356 587 363 524 367 469 b 372 410 373 350 372 290 b 370 231 366 172 355 114 b 347 66 335 11 306 -29 b 285 -60 248 -59 220 -36 b 180 -3 169 60 162 107 b 144 243 164 383 187 517 b 193 552 163 561 134 553 b 139 593 159 633 185 660 z"},"F":{"x_min":0,"x_max":819,"ha":819,"o":"m 731 281 b 693 268 655 253 618 237 b 617 259 616 281 615 303 b 609 482 615 661 626 840 b 640 845 654 851 669 855 b 748 882 831 903 915 905 b 953 906 997 906 1032 888 b 1061 872 1089 829 1064 798 b 1043 774 1084 763 1099 782 b 1138 831 1114 895 1062 922 b 998 956 907 945 839 935 b 765 924 693 903 622 877 b 611 891 586 894 571 892 b 546 888 512 869 508 841 b 507 837 507 833 506 829 b 466 811 427 791 389 770 b 319 732 252 690 188 643 b 160 622 132 599 107 574 b 86 552 53 522 50 489 b 44 420 184 440 222 442 b 300 447 365 427 419 367 b 459 321 480 264 493 205 b 494 196 494 187 495 177 b 450 153 406 126 363 96 b 338 79 367 59 388 73 b 424 98 461 120 499 141 b 504 85 511 29 520 -27 b 528 -74 537 -121 549 -167 b 558 -207 568 -251 605 -274 b 625 -286 655 -263 656 -243 b 657 -200 650 -155 647 -113 b 643 -68 638 -24 634 20 b 628 80 623 141 620 201 b 657 217 696 232 734 245 b 760 253 762 291 731 281 z m 420 432 b 370 470 313 484 251 482 b 216 480 180 475 145 478 b 130 479 98 479 98 500 b 97 513 122 534 130 544 b 175 594 232 632 288 669 b 356 714 427 753 501 788 b 484 647 479 504 484 362 b 466 389 445 413 420 432 z"},"`":{"x_min":0,"x_max":198,"ha":198,"o":"m 148 800 b 149 848 59 822 54 785 b 48 734 36 577 122 592 b 133 593 146 605 144 616 b 137 676 147 740 148 800 z"},"k":{"x_min":0,"x_max":496,"ha":496,"o":"m 487 213 b 469 165 452 116 427 72 b 418 56 392 13 368 26 b 363 29 356 40 352 45 b 346 53 340 61 335 70 b 314 106 304 147 284 183 b 273 203 261 222 244 237 b 234 245 223 252 213 258 b 257 267 298 290 327 327 b 344 349 363 382 360 411 b 357 442 325 456 296 454 b 225 448 180 377 148 321 b 133 293 119 264 106 234 b 104 284 102 335 100 385 b 100 389 100 392 100 396 b 169 452 229 526 278 598 b 335 681 395 812 319 902 b 288 939 244 952 198 943 b 139 932 97 892 64 844 b -8 739 -22 599 -24 475 b -25 401 -22 327 -14 254 b -9 215 -4 177 4 139 b 12 107 20 62 48 42 b 64 32 86 39 95 55 b 105 73 110 95 111 118 b 121 160 134 203 152 245 b 166 222 169 189 178 164 b 188 137 200 110 211 84 b 233 29 264 -21 329 -22 b 457 -25 494 117 530 215 b 539 239 494 232 487 213 z m 122 705 b 132 751 146 798 168 840 b 176 856 187 870 199 883 b 202 886 213 893 210 892 b 221 895 233 894 244 890 b 289 873 307 823 305 778 b 303 725 279 674 251 630 b 210 564 156 515 99 466 b 100 546 105 627 122 705 z m 174 292 b 190 322 208 351 228 376 b 243 393 270 423 296 417 b 332 410 307 365 296 348 b 268 306 222 288 174 292 z"},"u":{"x_min":0,"x_max":483,"ha":483,"o":"m 474 219 b 463 164 444 111 417 61 b 411 49 405 37 396 27 b 388 18 387 15 380 23 b 374 30 374 49 373 57 b 371 70 370 83 368 96 b 357 207 377 317 372 428 b 371 455 338 463 317 459 b 290 454 262 436 255 409 b 255 407 254 406 254 405 b 235 343 216 280 197 217 b 188 186 179 155 169 124 b 163 106 156 88 148 71 b 144 63 133 36 125 34 b 112 31 105 82 104 94 b 100 126 97 158 95 190 b 93 255 95 322 99 388 b 100 418 57 423 36 417 b 7 410 -17 387 -19 356 b -23 274 -29 193 -11 112 b 4 47 40 -32 121 -5 b 187 18 206 102 223 162 b 228 178 232 194 237 210 b 237 200 237 190 238 180 b 240 115 248 33 304 -10 b 351 -46 417 -15 445 30 b 481 87 503 156 516 222 b 521 246 478 239 474 219 z"},"]":{"x_min":0,"x_max":382,"ha":382,"o":"m 311 693 b 303 734 294 796 255 819 b 214 844 162 845 118 830 b 96 822 93 791 120 799 b 143 805 176 809 197 795 b 214 783 215 755 217 736 b 222 684 223 632 223 580 b 224 474 226 369 222 264 b 218 165 213 64 196 -34 b 187 -82 176 -130 160 -176 b 157 -185 155 -195 151 -204 b 150 -207 148 -209 147 -210 b 141 -208 131 -204 127 -201 b 101 -181 35 -209 53 -246 b 70 -281 107 -295 144 -293 b 191 -289 231 -257 252 -216 b 294 -129 309 -24 319 71 b 329 173 332 275 332 377 b 332 483 330 589 311 693 z"},"U":{"x_min":0,"x_max":870,"ha":870,"o":"m 766 -190 b 782 -200 816 -193 818 -170 b 823 -130 817 -87 814 -47 b 810 -4 807 40 805 84 b 801 170 801 257 801 343 b 802 520 808 697 812 874 b 812 903 773 911 752 907 b 729 903 696 887 687 863 b 686 861 685 859 684 857 b 603 608 569 345 479 98 b 460 47 432 -51 366 -58 b 302 -65 274 38 259 82 b 217 206 207 345 197 475 b 185 632 184 789 176 947 b 174 978 134 984 110 978 b 80 970 53 946 52 913 b 47 758 52 601 69 447 b 77 370 87 294 104 219 b 119 150 137 79 174 18 b 205 -37 257 -90 323 -96 b 385 -103 435 -71 469 -21 b 507 36 527 106 547 170 b 569 240 588 311 605 382 b 628 476 648 571 671 665 b 666 546 666 427 670 308 b 673 221 676 133 688 47 b 693 4 700 -38 711 -80 b 721 -116 733 -168 766 -190 z"},"o":{"x_min":0,"x_max":313,"ha":313,"o":"m 321 227 b 302 215 276 209 250 207 b 250 212 250 216 250 221 b 248 281 236 344 212 399 b 193 444 158 494 103 489 b 4 479 -35 348 7 270 b -35 178 -56 -41 93 -33 b 198 -26 240 79 248 173 b 284 177 318 187 343 206 b 365 223 339 240 321 227 z m 194 115 b 187 87 164 10 124 14 b 76 19 81 103 84 134 b 87 154 91 173 95 192 b 114 184 133 178 153 175 b 168 173 185 171 203 171 b 201 152 199 134 194 115 z m 188 208 b 158 211 130 219 105 234 b 109 251 112 267 113 284 b 114 306 86 315 70 314 b 60 313 50 311 41 306 b 36 321 33 337 33 353 b 34 387 52 437 87 449 b 129 464 158 404 171 373 b 188 332 197 287 201 243 b 202 231 203 219 203 207 b 198 207 193 208 188 208 z"},"N":{"x_min":0,"x_max":866,"ha":866,"o":"m 371 622 b 401 704 436 788 493 856 b 516 884 560 938 601 917 b 641 897 642 835 647 797 b 658 702 653 603 650 507 b 645 307 623 106 632 -94 b 635 -190 643 -303 703 -382 b 750 -446 841 -483 905 -419 b 926 -398 890 -383 873 -398 b 840 -426 800 -393 787 -361 b 771 -321 765 -271 761 -229 b 750 -133 753 -35 754 61 b 758 264 766 466 747 668 b 742 715 736 762 724 808 b 713 850 692 883 667 917 b 617 984 542 957 490 907 b 430 848 388 771 356 694 b 320 608 292 519 270 429 b 236 286 215 141 200 -4 b 192 72 185 148 180 224 b 171 384 172 545 183 704 b 185 736 139 741 117 735 b 86 727 62 704 60 671 b 47 510 47 348 60 187 b 66 106 76 26 91 -54 b 97 -91 105 -129 115 -166 b 124 -203 132 -247 160 -275 b 177 -292 210 -273 215 -254 b 221 -235 222 -215 221 -195 b 239 -12 257 170 295 350 b 314 442 339 533 371 622 z"},"+":{"x_min":0,"x_max":382,"ha":382,"o":"m 314 264 b 291 261 268 259 245 257 b 245 329 248 401 243 473 b 240 527 143 497 138 455 b 130 388 130 321 132 253 b 111 253 90 251 69 245 b 44 238 42 202 72 211 b 92 216 112 218 133 218 b 133 213 134 209 134 205 b 135 165 138 124 145 85 b 151 51 157 12 189 -5 b 203 -12 227 -3 232 11 b 246 43 243 83 245 117 b 247 152 246 187 246 221 b 266 223 286 225 305 228 b 316 230 330 236 332 248 b 333 258 325 266 314 264 z"},"G":{"x_min":0,"x_max":918,"ha":918,"o":"m 584 -54 b 608 -36 580 -16 560 -31 b 488 -84 441 -170 445 -261 b 450 -357 542 -424 636 -405 b 745 -382 796 -277 820 -178 b 846 -66 850 49 845 164 b 842 231 836 298 829 365 b 826 399 822 432 818 465 b 813 499 810 532 794 562 b 785 579 759 574 745 562 b 742 560 740 558 738 554 b 653 404 601 236 497 97 b 452 37 391 -33 318 -58 b 230 -89 177 -14 165 63 b 151 150 166 240 186 325 b 204 401 227 476 256 548 b 286 624 324 697 371 764 b 408 818 453 875 512 906 b 546 925 591 943 625 914 b 658 887 662 838 652 800 b 640 758 613 714 579 685 b 549 658 498 647 472 687 b 459 706 416 684 428 665 b 478 591 576 626 626 679 b 684 741 733 837 695 921 b 652 1013 540 1009 460 972 b 368 930 303 849 249 766 b 192 679 148 583 115 484 b 82 383 55 275 51 169 b 46 72 61 -42 152 -95 b 239 -145 345 -96 416 -41 b 569 79 639 260 719 432 b 719 424 719 417 718 410 b 717 361 721 311 723 262 b 726 167 731 72 726 -23 b 722 -105 712 -199 677 -274 b 663 -304 647 -331 613 -341 b 573 -352 532 -336 510 -301 b 459 -220 517 -105 584 -54 z"},"q":{"x_min":0,"x_max":493,"ha":493,"o":"m 497 241 b 438 188 373 142 308 95 b 302 212 309 330 310 448 b 310 504 212 471 204 431 b 202 425 201 419 200 413 b 190 439 168 457 133 454 b 82 451 42 410 18 368 b -27 290 -46 164 -3 81 b 17 43 60 21 103 27 b 142 32 167 66 181 100 b 182 103 184 107 185 111 b 189 20 199 -76 238 -158 b 255 -193 278 -230 315 -248 b 347 -264 393 -264 425 -248 b 496 -213 512 -116 494 -46 b 484 -4 459 33 421 55 b 395 70 366 75 336 76 b 400 121 464 167 521 219 b 543 239 516 258 497 241 z m 163 199 b 157 168 151 136 139 107 b 135 98 125 71 115 68 b 94 63 90 93 88 106 b 75 169 75 230 90 293 b 97 320 106 352 122 376 b 123 377 126 379 128 382 b 131 378 135 373 136 372 b 140 364 144 357 148 349 b 156 332 175 336 190 346 b 181 297 172 248 163 199 z m 410 9 b 442 -21 456 -65 455 -107 b 455 -142 445 -213 401 -220 b 361 -226 343 -147 337 -121 b 324 -67 316 -14 311 40 b 347 41 382 35 410 9 z"},"d":{"x_min":0,"x_max":517,"ha":517,"o":"m 511 231 b 500 179 480 129 448 86 b 440 74 416 39 398 42 b 383 44 367 77 361 89 b 338 136 331 191 325 242 b 319 297 317 352 315 406 b 393 498 453 606 482 722 b 495 772 503 847 456 883 b 407 920 338 870 304 834 b 203 728 189 570 190 430 b 178 447 159 456 132 454 b 81 451 41 410 17 368 b -28 290 -47 164 -4 81 b 16 43 59 21 102 27 b 141 32 166 66 180 100 b 194 134 201 171 207 208 b 207 207 207 206 207 205 b 218 142 237 63 289 20 b 342 -23 416 -2 460 43 b 509 94 538 166 552 234 b 556 258 515 250 511 231 z m 162 199 b 156 168 150 136 138 107 b 134 98 124 71 114 68 b 93 63 89 93 87 106 b 74 169 74 230 89 293 b 96 320 105 352 121 376 b 122 377 125 379 127 382 b 130 378 134 373 135 372 b 139 364 143 357 147 349 b 155 332 174 336 189 346 b 180 297 171 248 162 199 z m 347 736 b 353 759 384 859 416 846 b 439 838 444 800 444 780 b 445 753 438 726 431 701 b 406 616 366 538 315 468 b 316 558 323 649 347 736 z"},"1":{"x_min":0,"x_max":432,"ha":432,"o":"m 66 540 b 103 546 123 577 147 604 b 162 620 177 636 191 653 b 201 663 226 699 240 695 b 271 684 248 591 246 566 b 243 523 240 478 237 435 b 231 345 226 255 219 165 b 216 120 213 74 210 29 b 207 -15 199 -63 202 -108 b 183 -110 164 -111 145 -113 b 123 -115 106 -151 137 -149 b 163 -147 190 -145 216 -142 b 233 -155 263 -149 286 -136 b 309 -134 332 -131 354 -129 b 379 -126 396 -86 364 -90 b 350 -91 336 -93 322 -95 b 333 -44 332 11 335 63 b 337 111 340 160 341 208 b 344 309 347 410 341 510 b 338 556 333 602 319 646 b 310 674 296 722 264 733 b 228 744 197 713 176 689 b 159 670 142 650 125 631 b 118 623 110 615 103 606 b 95 597 82 576 69 573 b 49 570 40 536 66 540 z"},"5":{"x_min":0,"x_max":550,"ha":550,"o":"m 99 327 b 139 328 171 353 212 351 b 247 349 284 335 312 314 b 378 265 406 180 401 101 b 396 27 357 -75 278 -97 b 187 -121 115 -42 102 42 b 98 67 52 51 55 29 b 65 -44 111 -113 184 -137 b 265 -163 354 -125 413 -68 b 532 48 532 279 395 381 b 358 409 316 428 270 435 b 247 438 224 439 201 436 b 197 435 193 435 189 434 b 200 465 210 495 221 526 b 237 572 255 621 265 669 b 265 669 265 669 265 669 b 289 673 313 677 338 680 b 372 684 424 694 438 652 b 445 631 489 651 481 673 b 460 735 375 720 326 713 b 291 708 256 701 222 698 b 203 696 185 695 166 696 b 158 697 117 698 106 705 b 104 718 80 720 69 707 b 69 707 68 706 67 705 b 64 701 61 694 64 688 b 73 669 110 666 130 664 b 152 661 174 661 196 662 b 134 575 88 471 52 372 b 41 342 76 326 99 327 z"}}}
